<svg width="256" height="256" viewBox="0 0 256 256" fill="none" xmlns="http://www.w3.org/2000/svg">
  <rect width="256" height="256" rx="56" fill="url(#bg)"/>
  <path d="M70 60C70 48.9543 78.9543 40 90 40H111C145.794 40 174 68.2061 174 103C174 137.794 145.794 166 111 166H95V216H70V60Z" fill="white"/>
  <path d="M95 65V141H110C131.539 141 149 123.539 149 102C149 80.4609 131.539 63 110 63H97C95.8954 63 95 63.8954 95 65Z" fill="url(#inner)"/>
  <path d="M179 66L197 84L155 126L137 108L179 66Z" fill="#7DD3FC"/>
  <path d="M143 114L161 132L127 166H109L143 114Z" fill="#DBEAFE"/>
  <defs>
    <linearGradient id="bg" x1="28" y1="28" x2="228" y2="228" gradientUnits="userSpaceOnUse">
      <stop stop-color="#1E3A8A"/>
      <stop offset="1" stop-color="#3B82F6"/>
    </linearGradient>
    <linearGradient id="inner" x1="95" y1="63" x2="149" y2="141" gradientUnits="userSpaceOnUse">
      <stop stop-color="#BFDBFE"/>
      <stop offset="1" stop-color="#60A5FA"/>
    </linearGradient>
  </defs>
</svg>
